<svg width="140" height="169" viewBox="0 0 140 169" fill="none" xmlns="http://www.w3.org/2000/svg">
<rect y="0.903503" width="140" height="168" rx="12" fill="#F8F9FC"/>
<circle cx="120" cy="20.9035" r="11" fill="#F8F9FC"/>
<path fill-rule="evenodd" clip-rule="evenodd" d="M118.591 13.9035H121.409C122.347 13.9035 123.103 13.9035 123.697 13.9838C124.314 14.0672 124.834 14.2456 125.247 14.6603C125.66 15.075 125.837 15.5972 125.92 16.2174C126 16.8147 126 17.5742 126 18.5165V23.3033C126 24.1898 126 24.9137 125.922 25.4487C125.844 25.9868 125.662 26.5203 125.132 26.7794C124.601 27.0385 124.071 26.8525 123.602 26.5819C123.135 26.3129 122.569 25.8656 121.875 25.3179L121.377 24.9248C120.96 24.5958 120.683 24.3781 120.453 24.2374C120.234 24.1039 120.108 24.0718 120 24.0718C119.892 24.0718 119.766 24.1039 119.547 24.2374C119.317 24.3781 119.04 24.5958 118.623 24.9248L118.125 25.3179C117.431 25.8656 116.865 26.3129 116.398 26.5819C115.929 26.8525 115.399 27.0385 114.868 26.7794C114.338 26.5203 114.156 25.9868 114.078 25.4487C114 24.9137 114 24.1898 114 23.3033L114 18.5165C114 17.5742 114 16.8147 114.08 16.2174C114.163 15.5972 114.34 15.075 114.753 14.6603C115.166 14.2456 115.686 14.0672 116.303 13.9838C116.897 13.9035 117.653 13.9035 118.591 13.9035ZM116.44 15.0081C115.937 15.0761 115.67 15.2004 115.48 15.3911C115.291 15.5818 115.167 15.8495 115.099 16.3551C115.03 16.8755 115.029 17.5653 115.029 18.5543V23.2587C115.029 24.2006 115.03 24.848 115.096 25.2992C115.162 25.7562 115.27 25.8262 115.318 25.8499C115.366 25.8735 115.488 25.9153 115.886 25.6854C116.28 25.4586 116.787 25.0596 117.525 24.4777L118.012 24.0932C118.398 23.7882 118.723 23.5312 119.013 23.3544C119.32 23.1668 119.634 23.0383 120 23.0383C120.366 23.0383 120.68 23.1668 120.987 23.3544C121.277 23.5312 121.602 23.7882 121.988 24.0932L122.475 24.4777C123.213 25.0596 123.72 25.4586 124.114 25.6854C124.512 25.9153 124.634 25.8735 124.682 25.8499C124.73 25.8262 124.838 25.7562 124.904 25.2992C124.97 24.848 124.971 24.2006 124.971 23.2587V18.5543C124.971 17.5653 124.97 16.8755 124.901 16.3551C124.833 15.8495 124.709 15.5818 124.52 15.3911C124.33 15.2004 124.063 15.0761 123.56 15.0081C123.042 14.9381 122.356 14.937 121.371 14.937H118.629C117.644 14.937 116.958 14.9381 116.44 15.0081Z" fill="#3F444D"/>
<g filter="url(#filter0_d_532_4957)">
<ellipse cx="70" cy="87.4035" rx="53" ry="20.5" fill="#FFFBFA"/>
<path d="M122 87.4035C122 89.8575 120.718 92.3059 118.16 94.6451C115.602 96.9848 111.844 99.1378 107.116 100.967C97.6665 104.622 84.5443 106.904 70 106.904C55.4557 106.904 42.3335 104.622 32.8841 100.967C28.1561 99.1378 24.3984 96.9848 21.8398 94.6451C19.2819 92.3059 18 89.8575 18 87.4035C18 84.9495 19.2819 82.5011 21.8398 80.1619C24.3984 77.8222 28.1561 75.6692 32.8841 73.8405C42.3335 70.1855 55.4557 67.9035 70 67.9035C84.5443 67.9035 97.6665 70.1855 107.116 73.8405C111.844 75.6692 115.602 77.8222 118.16 80.1619C120.718 82.5011 122 84.9495 122 87.4035Z" stroke="#E1E6EF" stroke-width="2"/>
</g>
<path d="M70 73.9035C47.9086 73.9035 30 80.8431 30 89.4035" stroke="#E1E6EF" stroke-width="2" stroke-linecap="round"/>
<path d="M70 100.404C92.0914 100.404 110 93.4639 110 84.9035" stroke="#E1E6EF" stroke-width="2" stroke-linecap="round"/>
<path d="M37 70.0204V82.7018C37 87.1987 44.3862 90.83 53.5037 90.83C62.6212 90.83 69.9962 87.1875 69.9962 82.7018V70.0204H37Z" fill="#E1E6EF" stroke="#E1E6EF" stroke-linecap="round" stroke-linejoin="round"/>
<path d="M69.9962 70.0205C69.9962 74.5174 62.61 78.1374 53.5037 78.1374C44.3974 78.1374 37 74.5061 37 70.0205C37 65.5348 44.3862 61.9035 53.5037 61.9035C62.6212 61.9035 69.9962 65.5348 69.9962 70.0205Z" fill="white" stroke="#E1E6EF" stroke-linecap="round" stroke-linejoin="round"/>
<path d="M61.3288 70.0206C61.3288 72.1454 57.8212 73.8767 53.4592 73.8767C49.0972 73.8767 45.5896 72.1454 45.5896 70.0206C45.5896 67.8958 49.0972 66.1645 53.4592 66.1645C57.8212 66.1645 61.3288 67.8958 61.3288 70.0206Z" fill="#CBD2E1" stroke="#E1E6EF" stroke-linecap="round" stroke-linejoin="round"/>
<path d="M66 76.0204V88.7018C66 93.1987 73.3862 96.83 82.5037 96.83C91.6212 96.83 98.9962 93.1875 98.9962 88.7018V76.0204H66Z" fill="#E1E6EF" stroke="#E1E6EF" stroke-linecap="round" stroke-linejoin="round"/>
<path d="M98.9962 76.0205C98.9962 80.5174 91.61 84.1374 82.5037 84.1374C73.3974 84.1374 66 80.5061 66 76.0205C66 71.5348 73.3862 67.9035 82.5037 67.9035C91.6212 67.9035 98.9962 71.5348 98.9962 76.0205Z" fill="white" stroke="#E1E6EF" stroke-linecap="round" stroke-linejoin="round"/>
<path d="M90.3288 76.0206C90.3288 78.1454 86.8212 79.8767 82.4592 79.8767C78.0972 79.8767 74.5896 78.1454 74.5896 76.0206C74.5896 73.8958 78.0972 72.1645 82.4592 72.1645C86.8212 72.1645 90.3288 73.8958 90.3288 76.0206Z" fill="#CBD2E1" stroke="#E1E6EF" stroke-linecap="round" stroke-linejoin="round"/>
<defs>
<filter id="filter0_d_532_4957" x="17" y="66.9035" width="106" height="43" filterUnits="userSpaceOnUse" color-interpolation-filters="sRGB">
<feFlood flood-opacity="0" result="BackgroundImageFix"/>
<feColorMatrix in="SourceAlpha" type="matrix" values="0 0 0 0 0 0 0 0 0 0 0 0 0 0 0 0 0 0 127 0" result="hardAlpha"/>
<feOffset dy="2"/>
<feComposite in2="hardAlpha" operator="out"/>
<feColorMatrix type="matrix" values="0 0 0 0 0.882353 0 0 0 0 0.901961 0 0 0 0 0.937255 0 0 0 1 0"/>
<feBlend mode="normal" in2="BackgroundImageFix" result="effect1_dropShadow_532_4957"/>
<feBlend mode="normal" in="SourceGraphic" in2="effect1_dropShadow_532_4957" result="shape"/>
</filter>
</defs>
</svg>
