<svg width="24" height="24" viewBox="0 0 24 24" fill="none" xmlns="http://www.w3.org/2000/svg">
  <path fill-rule="evenodd" clip-rule="evenodd" d="M5.70242 7.88659C6.05897 4.67767 8.77132 2.25 12 2.25C15.2287 2.25 17.941 4.67767 18.2976 7.8866L18.5494 10.1528C18.6017 10.6242 18.6242 10.8216 18.6603 11.0124C18.7506 11.4893 18.9065 11.9514 19.1238 12.3854C19.2107 12.5591 19.3124 12.7296 19.5565 13.1364L20.3082 14.3893C20.5862 14.8524 20.837 15.2703 20.9827 15.6216C21.1353 15.9896 21.2619 16.4924 20.9806 16.989C20.6994 17.4857 20.2032 17.6358 19.8091 17.6943C19.433 17.7501 18.9455 17.7501 18.4054 17.75H5.59462C5.05446 17.7501 4.56702 17.7501 4.19088 17.6943C3.79676 17.6358 3.30054 17.4857 3.01934 16.989C2.73813 16.4924 2.86469 15.9896 3.01733 15.6216C3.163 15.2703 3.41383 14.8524 3.69179 14.3892L4.44353 13.1364C4.68756 12.7296 4.78933 12.5591 4.87622 12.3854C5.09344 11.9514 5.24942 11.4893 5.3397 11.0124C5.37581 10.8216 5.39824 10.6242 5.45062 10.1528L5.70242 7.88659ZM12 3.75C9.53565 3.75 7.46539 5.60297 7.19325 8.05224L6.93791 10.3503C6.8901 10.7807 6.86156 11.0376 6.81352 11.2913C6.69746 11.9045 6.49691 12.4986 6.21763 13.0567C6.10203 13.2877 5.96906 13.5093 5.74624 13.8807L5.00616 15.1141C4.69094 15.6395 4.50063 15.9606 4.40289 16.1962C4.40115 16.2004 4.39947 16.2045 4.39784 16.2086C4.40212 16.2092 4.40651 16.2099 4.41101 16.2106C4.66337 16.248 5.03661 16.25 5.64928 16.25H18.3507C18.9634 16.25 19.3366 16.248 19.589 16.2106C19.5935 16.2099 19.5979 16.2092 19.6021 16.2086C19.6005 16.2045 19.5988 16.2004 19.5971 16.1962C19.4994 15.9606 19.309 15.6395 18.9938 15.1141L18.2537 13.8806C18.0309 13.5093 17.8979 13.2877 17.7824 13.0567C17.5031 12.4986 17.3025 11.9045 17.1865 11.2913C17.1384 11.0376 17.1099 10.7807 17.0621 10.3503L16.8067 8.05224C16.5346 5.60297 14.4643 3.75 12 3.75Z" fill="#333333"/>
  <path fill-rule="evenodd" clip-rule="evenodd" d="M14.3924 20.562C13.7587 21.2914 12.9228 21.75 12 21.75C11.0771 21.75 10.2413 21.2914 9.60753 20.562C8.97731 19.8366 8.55348 18.8579 8.36389 17.7966C8.29105 17.3888 8.56256 16.9992 8.97032 16.9264C9.37808 16.8535 9.76768 17.125 9.84052 17.5328C9.99278 18.3852 10.3222 19.0975 10.7399 19.5782C11.154 20.0548 11.602 20.25 12 20.25C12.398 20.25 12.846 20.0548 13.2601 19.5782C13.6777 19.0975 14.0072 18.3852 14.1594 17.5328C14.2323 17.125 14.6219 16.8535 15.0296 16.9264C15.4374 16.9992 15.7089 17.3888 15.6361 17.7966C15.4465 18.8579 15.0227 19.8366 14.3924 20.562Z" fill="#333333"/>
</svg>
