<svg width="32" height="32" viewBox="0 0 32 32" fill="none" xmlns="http://www.w3.org/2000/svg">
    <path d="M26.6666 13.3334C26.6666 9.56214 26.6666 7.67652 25.4951 6.50495C24.3235 5.33337 22.4379 5.33337 18.6666 5.33337H13.3333C9.56208 5.33337 7.67646 5.33337 6.50489 6.50495C5.33331 7.67652 5.33331 9.56214 5.33331 13.3334V24.6667C5.33331 25.6095 5.33331 26.0809 5.62621 26.3738C5.9191 26.6667 6.3905 26.6667 7.33331 26.6667H18.6666C22.4379 26.6667 24.3235 26.6667 25.4951 25.4951C26.6666 24.3236 26.6666 22.4379 26.6666 18.6667V13.3334Z" stroke="#333333" stroke-width="2"/>
    <path d="M12 13.3334L20 13.3334" stroke="#333333" stroke-width="2" stroke-linecap="round" stroke-linejoin="round"/>
    <path d="M12 18.6666H16" stroke="#333333" stroke-width="2" stroke-linecap="round" stroke-linejoin="round"/>
</svg>
