<svg width="32" height="32" viewBox="0 0 32 32" fill="none" xmlns="http://www.w3.org/2000/svg">
    <path d="M4 8C4 6.11438 4 5.17157 4.58579 4.58579C5.17157 4 6.11438 4 8 4H24C25.8856 4 26.8284 4 27.4142 4.58579C28 5.17157 28 6.11438 28 8V24C28 25.8856 28 26.8284 27.4142 27.4142C26.8284 28 25.8856 28 24 28H8C6.11438 28 5.17157 28 4.58579 27.4142C4 26.8284 4 25.8856 4 24V8Z" stroke="#333333" stroke-width="2"/>
    <path d="M4 13.3334V13.3334C4 15.219 4 16.1618 4.58579 16.7476C5.17157 17.3334 6.11438 17.3334 8 17.3334H9.22515C9.92087 17.3334 10.2687 17.3334 10.5306 17.5221C10.7925 17.7109 10.9025 18.0409 11.1225 18.7009L11.5442 19.9658C11.7642 20.6258 11.8742 20.9559 12.136 21.1446C12.3979 21.3334 12.7458 21.3334 13.4415 21.3334H18.5585C19.2542 21.3334 19.6021 21.3334 19.864 21.1446C20.1258 20.9559 20.2358 20.6258 20.4558 19.9658L20.8775 18.7009C21.0975 18.0409 21.2075 17.7109 21.4694 17.5221C21.7313 17.3334 22.0791 17.3334 22.7749 17.3334H24C25.8856 17.3334 26.8284 17.3334 27.4142 16.7476C28 16.1618 28 15.219 28 13.3334V13.3334" stroke="#333333" stroke-width="2"/>
</svg>
