<svg width="89" height="22" viewBox="0 0 89 22" fill="none" xmlns="http://www.w3.org/2000/svg">
<path d="M18.3984 13.489L19.7044 11.1736L13.3807 7.9785C12.4642 7.51543 11.479 7.56174 10.9062 8.07111C11.5248 7.14498 11.8685 6.12624 11.8685 5.08434V1.51874H8.45457V5.03804C8.45457 8.34895 6.02589 10.5254 1.37473 12.2619L1.6955 13.3732C5.59056 12.4702 8.84408 10.7337 10.5625 8.53418L18.3984 13.489ZM0 18.1891V19.2773H20.9875V18.1891H0Z" fill="black"/>
<path d="M38.1136 21.5H41.5504V0.5H38.1136V21.5ZM30.9421 1.44928H27.5053V7.00606C27.5053 10.9421 26.0847 13.9057 22.1668 16.3137L22.7396 17.4019C26.0389 16.1979 28.9029 13.9057 30.186 10.8958L34.4935 17.3787L36.7618 15.7117L32.6834 10.8495C31.9732 10.016 31.1712 9.85391 30.4839 10.1781C30.7817 9.27508 30.9421 8.3258 30.9421 7.33021V1.44928Z" fill="black"/>
<path d="M44.9292 18.1891V19.2773H65.9168V18.1891H57.1414V12.7481C61.4489 12.3313 63.763 10.2938 63.763 7.16814C63.763 3.64884 60.8303 1.51874 55.423 1.51874C50.0157 1.51874 47.083 3.64884 47.083 7.16814C47.083 10.2938 49.3971 12.3313 53.7046 12.7481V18.1891H44.9292ZM55.423 2.58379C58.3787 2.58379 60.3262 4.38975 60.3262 7.16814C60.3262 9.94653 58.3787 11.7525 55.423 11.7525C52.4673 11.7525 50.5198 9.94653 50.5198 7.16814C50.5198 4.38975 52.4673 2.58379 55.423 2.58379Z" fill="black"/>
<path d="M79.9955 9.414C79.9955 3.62569 77.9105 1.33352 74.0613 1.33352C70.2121 1.33352 68.1271 3.62569 68.1271 9.414C68.1271 15.2023 70.2121 17.4945 74.0613 17.4945C77.9105 17.4945 79.9955 15.2023 79.9955 9.414ZM85.7694 0.5H82.3326V21.5H85.7694V13.5121H89V12.4239H85.7694V6.21885H89V5.13065H85.7694V0.5ZM76.5816 9.414C76.5816 14.6235 75.711 16.4294 74.0613 16.4294C72.4116 16.4294 71.541 14.6235 71.541 9.414C71.541 4.20452 72.4116 2.39857 74.0613 2.39857C75.711 2.39857 76.5816 4.20452 76.5816 9.414Z" fill="black"/>
</svg>
