<svg width="24" height="24" viewBox="0 0 24 24" fill="none" xmlns="http://www.w3.org/2000/svg">
    <path fill-rule="evenodd" clip-rule="evenodd" d="M11 4.75C7.54822 4.75 4.75 7.54822 4.75 11C4.75 14.4518 7.54822 17.25 11 17.25C14.4518 17.25 17.25 14.4518 17.25 11C17.25 7.54822 14.4518 4.75 11 4.75ZM3.25 11C3.25 6.71979 6.71979 3.25 11 3.25C15.2802 3.25 18.75 6.71979 18.75 11C18.75 15.2802 15.2802 18.75 11 18.75C6.71979 18.75 3.25 15.2802 3.25 11Z" fill="#3F444D"/>
    <path fill-rule="evenodd" clip-rule="evenodd" d="M15.5947 15.5947C15.8876 15.3018 16.3624 15.3018 16.6553 15.5947L20.5303 19.4697C20.8232 19.7626 20.8232 20.2375 20.5303 20.5304C20.2374 20.8233 19.7626 20.8233 19.4697 20.5304L15.5947 16.6553C15.3018 16.3624 15.3018 15.8876 15.5947 15.5947Z" fill="#3F444D"/>
</svg>
